<?xml version="1.0" encoding="utf-8"?>
<svg version="1.1" xmlns="http://www.w3.org/2000/svg" viewBox="0 0 1024 1024">
  <!-- black rounded rect (90% art area), symbol in white at ~80% scale. -->
  <rect x="0" y="0" width="1024" height="1024" rx="203" ry="203" fill="#000000"/>
  <!-- Paper cutter in white: 80% of art area (922×0.8=737.6px) → scale 737.6/256; centre (128,128) in 256 space -->
  <g transform="translate(512, 512) scale(3) translate(-128, -128)" fill="#ffffff">
      <path d="M30.2,9.5c-5.6,0.7-19.5,3.7-20.2,4.3c-0.4,0.4,32.3,34.8,59.8,62.9l5.7,5.8l-3.6,3.4c-4.1,3.9-4.9,5.8-3.4,8.1c0.6,0.8,21.5,22.7,46.5,48.7c25,25.9,47.4,49.3,49.6,51.9c5.2,6.1,11.2,15,17.5,25.8c15.1,26.1,19.8,29.9,31,24.8c11.6-5.4,25.3-24.8,30.4-43c6.6-23.8,0.1-43.5-18.3-56.2c-4.9-3.4-11.5-6.4-17-7.7l-4.4-1.1l-36.7-38.1c-20.2-20.9-39.8-41.2-43.6-45.2c-6.2-6.5-7-7.1-9.1-7.1c-1.5,0-2.6,0.4-3.4,1.3c-0.6,0.7-2.7,2.7-4.7,4.4l-3.6,3.1L85.7,38c-9.4-9.7-18.5-18.8-20.2-20.3C56.9,10.4,44.9,7.6,30.2,9.5z M65.4,36c1.2,1.2,1.2,2.4,0,3.7c-0.9,0.9-2.1,0.9-9.5,0.6c-8.6-0.4-10-0.8-10-2.7c0-2.2,1.3-2.6,10-2.6C62.8,35,64.7,35.2,65.4,36z M73.2,44.1c0.7,0.7,0.7,1.2,0.2,2.5c-0.7,1.6-0.7,1.6-9.2,1.6c-4.7,0-9-0.3-9.7-0.6c-1.5-0.8-1.6-3.4-0.1-4.4C56,42.1,72,42.9,73.2,44.1z M80.7,51.9c0.5,0.9,0.5,1.6,0,2.5c-0.6,1.2-1.3,1.2-9.5,1.2c-6.1,0-9.2-0.3-9.7-0.7c-0.8-0.8-1-3.1-0.3-3.8c0.2-0.3,4.6-0.4,9.6-0.4C79.4,50.6,80.1,50.7,80.7,51.9z M150.8,111.7c2.2-1.7,5.9-2.2,8.8-1.2c3.3,1.1,23.2,21.7,24.1,25c0.8,3,0.3,6.3-1.4,8.4l-1.2,1.6l8,8.2c4.4,4.6,9,9.4,10.3,10.7l2.4,2.4l2.6-2.3c3-2.7,3.4-2.6,6.9,2.1c6.2,8.2,9.9,19.3,9.9,29.3c0,6.7-0.6,9.5-2.7,12.6c-4.2,6.2-9.6,4.1-17.6-6.7c-5.2-6.9-11.3-10.2-19.2-10.2c-2.5,0-3.6-0.3-3.6-0.8c0-0.4,2-2.7,4.4-5.1l4.4-4.4l-10.4-10.4L166,160.5l-2.6,1.9c-3.1,2.2-7.4,2.6-10.6,0.9c-1-0.5-6.4-5.7-11.9-11.5c-11.2-11.7-12.3-13.5-10.9-18.2c0.4-1.3,1.4-3.3,2.3-4.3l1.6-1.9l-25.6-26L82.6,75.3l7.3-7.4l7.4-7.4l25.9,26.3l25.9,26.3L150.8,111.7z"/>
      <path d="M154.8,115.4c-0.6,0.3-5.3,4.5-10.4,9.4c-12.5,12-12.6,10.4,0.7,24c12.9,13.4,11.5,13.2,22,3.2c11.7-11.1,11.7-11.2,11.7-13.7c0-2.1-0.7-3.1-9.5-12C157.9,114.7,157.5,114.3,154.8,115.4z"/>
  </g>
</svg>
